<svg width="128" height="108" viewBox="0 0 128 108" fill="none" xmlns="http://www.w3.org/2000/svg">
    <path fill-rule="evenodd" clip-rule="evenodd" d="M47.4701 0C39.5113 0 33.0595 6.45185 33.0595 14.4106L33.0595 33.0595L28.8212 33.0595V32.2118C28.8212 24.2531 22.3693 17.8012 14.4106 17.8012C6.45184 17.8012 0 24.2531 0 32.2118L0 74.8785C0 82.8372 6.45184 89.2891 14.4106 89.2891C22.3693 89.2891 28.8212 82.8372 28.8212 74.8785L28.8212 46.3398L33.0595 46.3398L33.0595 92.9625C33.0595 100.921 39.5113 107.373 47.4701 107.373C55.4288 107.373 61.8807 100.921 61.8807 92.9625L61.8807 14.4106C61.8807 6.45184 55.4288 0 47.4701 0ZM99.1788 53.6866V50.5786C99.1788 42.6198 105.631 36.168 113.589 36.168C121.548 36.168 128 42.6198 128 50.5786V62.1635C128 70.1223 121.548 76.5742 113.589 76.5742C107.315 76.5742 101.977 72.5641 99.9988 66.967H94.9405V68.945C94.9405 76.9037 88.4887 83.3555 80.53 83.3555C72.5712 83.3555 66.1194 76.9037 66.1194 68.945L66.1194 38.4284C66.1194 30.4696 72.5712 24.0178 80.53 24.0178C88.4887 24.0178 94.9405 30.4696 94.9405 38.4284V53.6866H99.1788Z" fill="url(#paint0_linear_1735_12082)"/>
    <defs>
        <linearGradient id="paint0_linear_1735_12082" x1="-11.5556" y1="31.8175" x2="128" y2="86.2222" gradientUnits="userSpaceOnUse">
            <stop stop-color="#FF47AA"/>
            <stop offset="1" stop-color="#FF0054"/>
        </linearGradient>
    </defs>
</svg>
